<svg width="121" height="40" fill="none" xmlns="http://www.w3.org/2000/svg"><path d="M111.055 0H9.615c-.37 0-.736 0-1.105.002-.308.002-.614.008-.926.013-.677.008-1.353.067-2.02.177a6.76 6.76 0 00-1.918.627 6.49 6.49 0 00-1.632 1.178A6.261 6.261 0 00.826 3.618a6.563 6.563 0 00-.63 1.904 12.888 12.888 0 00-.18 2.002c-.01.306-.011.614-.016.92V31.56c.005.31.006.611.015.922.008.67.069 1.34.181 2.002.11.663.323 1.305.63 1.904A6.21 6.21 0 002.014 38a6.325 6.325 0 001.632 1.179c.604.304 1.25.517 1.917.63.668.11 1.344.169 2.02.177.313.007.619.011.927.011.37.002.735.002 1.104.002h101.441c.363 0 .731 0 1.093-.002.307 0 .623-.004.93-.01a13.63 13.63 0 002.017-.177 6.908 6.908 0 001.924-.631 6.325 6.325 0 001.63-1.179 6.393 6.393 0 001.192-1.614 6.57 6.57 0 00.624-1.904 13.31 13.31 0 00.187-2.002c.004-.311.004-.612.004-.922.008-.364.008-.725.008-1.094V9.536c0-.366 0-.73-.008-1.092 0-.306 0-.614-.004-.92a13.307 13.307 0 00-.187-2.002 6.567 6.567 0 00-.624-1.904 6.5 6.5 0 00-2.822-2.8 6.872 6.872 0 00-1.924-.627 13.235 13.235 0 00-2.017-.176c-.307-.005-.623-.011-.93-.013-.362-.002-.73-.002-1.093-.002z" fill="#A6A6A6"/><path d="M8.515 39.125a40.6 40.6 0 01-.911-.01 12.893 12.893 0 01-1.885-.164 5.967 5.967 0 01-1.67-.548 5.45 5.45 0 01-1.41-1.016 5.322 5.322 0 01-1.028-1.397 5.689 5.689 0 01-.548-1.657 12.28 12.28 0 01-.168-1.875c-.006-.21-.015-.913-.015-.913v-23.1s.01-.692.015-.895a12.27 12.27 0 01.167-1.872 5.722 5.722 0 01.548-1.662 5.61 5.61 0 012.438-2.42 5.906 5.906 0 011.667-.545A12.795 12.795 0 017.606.887l.91-.012h103.627l.921.013c.628.007 1.254.062 1.874.162a6.022 6.022 0 011.685.548 5.618 5.618 0 012.435 2.42 5.72 5.72 0 01.54 1.65c.104.623.163 1.254.175 1.886.003.284.003.588.003.89.008.375.008.732.008 1.092v20.929c0 .363 0 .718-.008 1.075 0 .325 0 .623-.004.93-.012.621-.069 1.24-.172 1.853a5.726 5.726 0 01-.545 1.67 5.48 5.48 0 01-1.024 1.386 5.45 5.45 0 01-1.411 1.023 5.95 5.95 0 01-1.682.55c-.623.1-1.253.155-1.885.162-.295.007-.604.011-.905.011l-1.093.002-102.54-.002z" fill="#000"/><path d="M24.976 20.3a4.9 4.9 0 01.65-2.378 4.968 4.968 0 011.726-1.773 5.094 5.094 0 00-1.755-1.55 5.141 5.141 0 00-2.27-.608c-1.693-.176-3.334 1.005-4.197 1.005-.88 0-2.208-.987-3.639-.958a5.392 5.392 0 00-2.617.774 5.336 5.336 0 00-1.893 1.954c-1.95 3.348-.495 8.27 1.373 10.976.934 1.325 2.027 2.805 3.456 2.753 1.399-.058 1.92-.885 3.61-.885 1.672 0 2.162.885 3.62.852 1.501-.024 2.447-1.332 3.349-2.67a10.926 10.926 0 001.53-3.092 4.813 4.813 0 01-2.139-1.76 4.754 4.754 0 01-.804-2.64zm-2.754-8.089a4.846 4.846 0 001.123-3.49 5.013 5.013 0 00-3.234 1.66 4.626 4.626 0 00-1.153 3.36 4.163 4.163 0 001.809-.393 4.128 4.128 0 001.455-1.137zM42.656 27.14h-4.773l-1.146 3.356h-2.022l4.521-12.418h2.1l4.521 12.418h-2.056l-1.145-3.356zm-4.279-1.549h3.784l-1.865-5.447h-.053l-1.866 5.447zm17.244.379c0 2.813-1.518 4.621-3.81 4.621a3.117 3.117 0 01-1.666-.383 3.081 3.081 0 01-1.206-1.201h-.044v4.484h-1.873V21.443h1.813v1.505h.035a3.227 3.227 0 011.23-1.198 3.26 3.26 0 011.677-.402c2.317 0 3.844 1.816 3.844 4.622zm-1.926 0c0-1.833-.955-3.038-2.413-3.038-1.431 0-2.394 1.23-2.394 3.038 0 1.824.963 3.046 2.394 3.046 1.458 0 2.413-1.196 2.413-3.046zm11.975 0c0 2.813-1.52 4.621-3.81 4.621a3.116 3.116 0 01-1.666-.383 3.081 3.081 0 01-1.207-1.201h-.044v4.484H57.07V21.443h1.813v1.505h.035a3.227 3.227 0 011.23-1.198 3.26 3.26 0 011.677-.402c2.317 0 3.844 1.816 3.844 4.622zm-1.927 0c0-1.833-.955-3.038-2.413-3.038-1.431 0-2.394 1.23-2.394 3.038 0 1.824.963 3.046 2.395 3.046 1.457 0 2.412-1.196 2.412-3.046zm8.567 1.066c.139 1.232 1.345 2.04 2.994 2.04 1.58 0 2.716-.808 2.716-1.919 0-.963-.686-1.54-2.309-1.936l-1.622-.388c-2.3-.55-3.367-1.617-3.367-3.348 0-2.142 1.883-3.614 4.556-3.614 2.646 0 4.46 1.472 4.521 3.614h-1.892c-.113-1.239-1.146-1.987-2.656-1.987-1.51 0-2.542.757-2.542 1.859 0 .878.66 1.394 2.274 1.79l1.38.336c2.568.602 3.636 1.625 3.636 3.442 0 2.323-1.866 3.778-4.834 3.778-2.777 0-4.652-1.42-4.773-3.667h1.918zM84.043 19.3v2.142h1.736v1.472h-1.736v4.991c0 .776.348 1.137 1.11 1.137a5.76 5.76 0 00.617-.043v1.463a5.181 5.181 0 01-1.04.086c-1.849 0-2.57-.688-2.57-2.444v-5.19h-1.327v-1.472h1.327V19.3h1.883zm2.742 6.67c0-2.849 1.691-4.639 4.33-4.639 2.646 0 4.33 1.79 4.33 4.639 0 2.856-1.675 4.639-4.33 4.639-2.655 0-4.33-1.783-4.33-4.64zm6.75 0c0-1.954-.902-3.108-2.42-3.108-1.519 0-2.421 1.163-2.421 3.108 0 1.962.902 3.106 2.42 3.106 1.519 0 2.422-1.144 2.422-3.106zm3.455-4.528h1.788v1.541h.043c.12-.48.405-.906.805-1.204.4-.298.891-.45 1.391-.431.216-.001.431.022.642.07v1.737a2.64 2.64 0 00-.842-.112 1.904 1.904 0 00-1.46.596 1.87 1.87 0 00-.493 1.487v5.37H96.99v-9.053zm13.309 6.395c-.252 1.644-1.866 2.771-3.931 2.771-2.656 0-4.304-1.764-4.304-4.595 0-2.84 1.657-4.682 4.225-4.682 2.526 0 4.114 1.72 4.114 4.466v.637h-6.448v.112a2.338 2.338 0 00.645 1.832 2.379 2.379 0 001.811.732 2.08 2.08 0 001.267-.29c.38-.229.675-.574.841-.983h1.78zm-6.335-2.702h4.564A2.167 2.167 0 00107.172 23c-.28-.114-.58-.17-.883-.163a2.328 2.328 0 00-1.645.669 2.282 2.282 0 00-.68 1.629zM38.142 8.731a2.682 2.682 0 012.123.818 2.634 2.634 0 01.708 2.147c0 1.906-1.038 3.002-2.83 3.002h-2.174V8.731h2.173zm-1.239 5.123h1.135a1.905 1.905 0 001.507-.605 1.872 1.872 0 00.477-1.54 1.866 1.866 0 00-.485-1.532 1.897 1.897 0 00-1.5-.603h-1.133v4.28zm5.126-1.41a2.117 2.117 0 01.55-1.637 2.15 2.15 0 011.591-.699 2.166 2.166 0 011.592.699 2.13 2.13 0 01.55 1.637 2.118 2.118 0 01-.548 1.641 2.151 2.151 0 01-1.594.7 2.167 2.167 0 01-1.593-.7 2.13 2.13 0 01-.548-1.64zm3.36 0c0-.976-.441-1.546-1.217-1.546-.78 0-1.217.57-1.217 1.546 0 .984.438 1.55 1.217 1.55.776 0 1.218-.57 1.218-1.55zm6.615 2.254h-.93l-.938-3.316h-.07l-.935 3.316h-.92l-1.252-4.503h.908l.814 3.436h.067l.933-3.436h.86l.933 3.436h.071l.81-3.436h.896l-1.247 4.503zm2.3-4.503h.862v.715h.067a1.365 1.365 0 011.355-.802 1.487 1.487 0 011.192.463 1.46 1.46 0 01.38 1.212v2.915h-.896v-2.692c0-.724-.317-1.084-.98-1.084a1.049 1.049 0 00-.807.324 1.031 1.031 0 00-.277.818v2.634h-.896v-4.503zm5.284-1.758h.896v6.26h-.896v-6.26zm2.142 4.007a2.116 2.116 0 01.549-1.638 2.151 2.151 0 011.592-.698 2.168 2.168 0 011.592.698 2.13 2.13 0 01.55 1.639 2.116 2.116 0 01-.549 1.64 2.151 2.151 0 01-1.593.7 2.166 2.166 0 01-1.593-.7 2.129 2.129 0 01-.549-1.64zm3.36 0c0-.976-.442-1.546-1.218-1.546-.779 0-1.217.57-1.217 1.546 0 .984.438 1.55 1.217 1.55.776 0 1.218-.57 1.218-1.55zm1.866.98c0-.81.608-1.277 1.689-1.344l1.23-.07v-.389c0-.475-.318-.744-.93-.744-.5 0-.847.182-.946.5h-.868c.092-.773.825-1.269 1.855-1.269 1.139 0 1.78.562 1.78 1.513v3.077h-.862v-.633h-.07a1.539 1.539 0 01-1.364.707 1.383 1.383 0 01-1.059-.34 1.363 1.363 0 01-.455-1.008zm2.918-.384v-.377l-1.108.07c-.626.042-.91.253-.91.65 0 .405.355.641.843.641a1.077 1.077 0 001.063-.577c.064-.127.103-.265.112-.407zm2.07-.596c0-1.422.738-2.324 1.885-2.324a1.506 1.506 0 011.393.79h.067V8.437h.896v6.26h-.86v-.71h-.07a1.57 1.57 0 01-1.426.785c-1.155 0-1.885-.901-1.885-2.328zm.926 0c0 .956.454 1.53 1.213 1.53.755 0 1.222-.583 1.222-1.526 0-.938-.471-1.53-1.222-1.53-.754 0-1.213.58-1.213 1.527zm7.022 0a2.117 2.117 0 01.55-1.637 2.15 2.15 0 011.591-.699 2.166 2.166 0 011.592.699 2.13 2.13 0 01.55 1.637 2.118 2.118 0 01-.548 1.641 2.151 2.151 0 01-1.594.7 2.167 2.167 0 01-1.593-.7 2.13 2.13 0 01-.548-1.64zm3.361 0c0-.976-.442-1.546-1.218-1.546-.779 0-1.217.57-1.217 1.546 0 .984.438 1.55 1.217 1.55.776 0 1.218-.57 1.218-1.55zm2.124-2.249h.863v.715h.067a1.364 1.364 0 011.355-.802 1.487 1.487 0 011.191.463 1.463 1.463 0 01.38 1.212v2.915h-.896v-2.692c0-.724-.317-1.084-.98-1.084a1.049 1.049 0 00-.806.324 1.032 1.032 0 00-.278.818v2.634h-.896v-4.503zm8.92-1.121v1.142h.983v.748h-.983v2.315c0 .472.196.679.642.679.114 0 .228-.008.341-.02v.74a2.974 2.974 0 01-.487.045c-.997 0-1.394-.348-1.394-1.216v-2.543h-.72v-.749h.72V9.074h.898zm2.207-.637h.889v2.482h.07a1.404 1.404 0 011.385-.807 1.509 1.509 0 011.18.475 1.48 1.48 0 01.384 1.204v2.907h-.897V12.01c0-.72-.338-1.084-.971-1.084a1.07 1.07 0 00-.84.307 1.052 1.052 0 00-.303.835v2.63h-.897v-6.26zm9.133 5.045a1.83 1.83 0 01-.746 1.006 1.853 1.853 0 01-1.222.297 2.077 2.077 0 01-1.591-.68 2.034 2.034 0 01-.506-1.644 2.076 2.076 0 011.222-2.172 2.09 2.09 0 01.871-.181c1.264 0 2.026.856 2.026 2.27v.31h-3.206v.05c-.015.165.006.332.061.488a1.205 1.205 0 00.661.705 1.2 1.2 0 00.487.097 1.084 1.084 0 001.08-.546h.863zm-3.153-1.451h2.294a1.09 1.09 0 00-1.118-1.167 1.167 1.167 0 00-1.09.718 1.132 1.132 0 00-.085.449h-.001z" fill="#fff"/></svg>