<svg xmlns="http://www.w3.org/2000/svg" width="52" height="51" viewBox="0 0 52 51"><defs><clipPath id="5fkwa"><path fill="#fff" d="M25.967 20.1c2.903 0 5.256 2.44 5.256 5.45 0 3.01-2.353 5.45-5.256 5.45s-5.256-2.44-5.256-5.45c0-3.01 2.353-5.45 5.256-5.45z"/></clipPath></defs><g><g><path fill="#fff" d="M25.967 20.1c2.903 0 5.256 2.44 5.256 5.45 0 3.01-2.353 5.45-5.256 5.45s-5.256-2.44-5.256-5.45c0-3.01 2.353-5.45 5.256-5.45z"/><path fill="none" stroke="#000" stroke-miterlimit="20" stroke-width="2" d="M25.967 20.1c2.903 0 5.256 2.44 5.256 5.45 0 3.01-2.353 5.45-5.256 5.45s-5.256-2.44-5.256-5.45c0-3.01 2.353-5.45 5.256-5.45z" clip-path="url(&quot;#5fkwa&quot;)"/></g></g></svg>